<svg xmlns="http://www.w3.org/2000/svg" version="1.1" xmlns:xlink="http://www.w3.org/1999/xlink" xmlns:svgjs="http://svgjs.dev/svgjs" width="100%" height="100%" viewBox="0 0 1000 600"><rect width="1000" height="600" x="0" y="0" fill="#8bd8bd"/><g><rect width="333.3333333333333" height="333.3333333333333" rx="13.333333333333334" ry="13.333333333333334" y="77.77780045403293" fill="#243665" transform="matrix(2.25000013732911,0,0,2.25000013732911,0,-250.00003738403575)" x="55.555564880371094"/><path d="M241.28472717035316 313.22420865680203L241.28472717035316 319.44444656372013L188.15972877873241 319.44444656372013L188.15972877873241 313.22420865680203Q192.44544293469514 311.52778013673355 196.73115709065777 310.33730398229943Q201.01687124662047 309.1468278278653 205.51091872960913 308.0753992888747L205.51091872960913 308.0753992888747L205.51091872960913 211.6468307797143L206.37401394157382 186.587307728877L204.6478235176444 186.587307728877L197.5942523026225 209.50397370173297L153.665682204005 319.44444656372013L148.07044427816484 319.44444656372013L106.28473125752869 209.50397370173297L98.57639815756804 184.44445065089562L96.64187440661266 184.44445065089562L96.87996963749947 211.6468307797143L96.87996963749947 308.0753992888747Q100.92758856257532 308.9384945008394 105.00496939151205 310.21825636685605Q109.08235022044877 311.52778013673355 113.1597310493855 313.22420865680203L113.1597310493855 313.22420865680203L113.1597310493855 319.44444656372013L68.3680657388033 319.44444656372013L68.3680657388033 313.22420865680203Q72.44544656774 311.52778013673355 76.82044643528525 310.1289706552734Q81.22520820669133 308.73016117381337 85.71925568967998 307.86706596184865L85.71925568967998 307.86706596184865L85.71925568967998 181.02183170689767Q81.22520820669133 180.15873649493295 76.82044643528525 178.75992701347292Q72.44544656774 177.36111753201288 68.15973241177733 175.6646890119443L68.15973241177733 175.6646890119443L68.15973241177733 169.44445110502625L112.08830251039483 169.44445110502625L149.37996804804231 267.3611148072292L156.6418725900902 289.44444747198133L156.87996782097701 289.44444747198133L164.1418723630249 266.9444481531773L202.71329976668903 169.44445110502625L241.52282240123998 169.44445110502625L241.52282240123998 175.6646890119443Q237.65377489932922 177.36111753201288 233.57639407039252 178.75992701347292Q229.49901324145577 180.15873649493295 225.2132990854931 181.02183170689767L225.2132990854931 181.02183170689767L225.2132990854931 308.31349451976143Q229.73710847234264 309.1468278278653 233.69544168583593 310.33730398229943Q237.65377489932922 311.52778013673355 241.28472717035316 313.22420865680203L241.28472717035316 313.22420865680203ZM344.14186691345753 313.22420865680203L344.14186691345753 319.44444656372013L283.933535402954 319.44444656372013L283.933535402954 313.22420865680203Q288.6656781168295 311.52778013673355 293.4871065422875 310.21825636685605Q298.3085349677455 308.9384945008394 303.87401098972487 308.0753992888747L303.87401098972487 308.0753992888747L303.87401098972487 180.5754031489849L271.076392935066 180.5754031489849L259.7371075640814 211.2301641256624L254.37996486912803 211.2301641256624Q253.72520298418928 206.94444996969972 253.30853633013737 201.46825965930296Q252.8621077722246 196.02183125276704 252.53472682975524 190.33730761534432Q252.23710779114668 184.6527839779216 251.99901256025987 179.2063555713857Q251.7906792332339 173.73016526098894 251.7906792332339 169.44445110502625L251.7906792332339 169.44445110502625L376.2847230831776 169.44445110502625Q376.2847230831776 173.73016526098894 376.0763897561517 179.08730795594232Q375.8680564291258 184.44445065089562 375.54067548665637 190.12897428831835Q375.21329454418697 195.81349792574107 374.9156755055784 201.259926332277Q374.5882945631091 206.73611664267375 373.9335326781703 211.2301641256624L373.9335326781703 211.2301641256624L368.368056656191 211.2301641256624L357.23710461223243 180.5754031489849L324.43948655757356 180.5754031489849L324.43948655757356 308.0753992888747Q330.00496257955285 309.1468278278653 334.8263910050108 310.21825636685605Q339.64781943046887 311.2896849058467 344.14186691345753 313.22420865680203L344.14186691345753 313.22420865680203Z " fill="#8bd8bd" transform="matrix(2.25000013732911,0,0,2.25000013732911,0,-250.00003738403575)"/><path d="MNaN 244.4444580078119 " fill="#243665" transform="matrix(2.25000013732911,0,0,2.25000013732911,0,-250.00003738403575)"/></g></svg>